<svg width="158" height="35" viewBox="0 0 158 35" fill="none" xmlns="http://www.w3.org/2000/svg">
<path d="M126.445 21.2705V13.4705H127.615V16.4555H129.685C129.905 16.4555 130.12 16.4755 130.33 16.5155C130.55 16.5455 130.755 16.6105 130.945 16.7105C131.145 16.8005 131.325 16.9255 131.485 17.0855C131.645 17.2355 131.775 17.4105 131.875 17.6105C131.975 17.8005 132.045 18.0055 132.085 18.2255C132.125 18.4355 132.145 18.6455 132.145 18.8555C132.145 19.0755 132.125 19.2955 132.085 19.5155C132.045 19.7255 131.975 19.9305 131.875 20.1305C131.775 20.3205 131.645 20.4955 131.485 20.6555C131.325 20.8055 131.145 20.9305 130.945 21.0305C130.755 21.1205 130.55 21.1855 130.33 21.2255C130.12 21.2555 129.905 21.2705 129.685 21.2705H126.445ZM127.615 20.2205H129.685C129.865 20.2205 130.04 20.1905 130.21 20.1305C130.39 20.0705 130.54 19.9755 130.66 19.8455C130.78 19.7155 130.86 19.5655 130.9 19.3955C130.95 19.2155 130.975 19.0355 130.975 18.8555C130.975 18.6855 130.95 18.5155 130.9 18.3455C130.86 18.1655 130.78 18.0105 130.66 17.8805C130.54 17.7505 130.39 17.6555 130.21 17.5955C130.04 17.5355 129.865 17.5055 129.685 17.5055H127.615V20.2205Z" fill="white"/>
<path d="M121.9 21.2705V14.5205H119.605V13.4705H125.365V14.5205H123.07V21.2705H121.9Z" fill="white"/>
<path d="M115.735 21.3905C115.465 21.3905 115.195 21.3605 114.925 21.3005C114.665 21.2505 114.415 21.1605 114.175 21.0305C113.945 20.9005 113.735 20.7355 113.545 20.5355C113.365 20.3255 113.22 20.1005 113.11 19.8605C113 19.6105 112.925 19.3505 112.885 19.0805C112.845 18.8105 112.825 18.5405 112.825 18.2705V16.4705C112.825 16.2005 112.845 15.9305 112.885 15.6605C112.925 15.3905 113 15.1355 113.11 14.8955C113.22 14.6455 113.365 14.4205 113.545 14.2205C113.735 14.0105 113.945 13.8405 114.175 13.7105C114.415 13.5805 114.665 13.4905 114.925 13.4405C115.195 13.3805 115.465 13.3505 115.735 13.3505C116.005 13.3505 116.27 13.3805 116.53 13.4405C116.8 13.4905 117.05 13.5805 117.28 13.7105C117.52 13.8405 117.73 14.0105 117.91 14.2205C118.1 14.4205 118.25 14.6455 118.36 14.8955C118.47 15.1355 118.545 15.3905 118.585 15.6605C118.625 15.9305 118.645 16.2005 118.645 16.4705V17.8955H113.995V18.2705C113.995 18.4405 114.005 18.6105 114.025 18.7805C114.045 18.9505 114.085 19.1155 114.145 19.2755C114.205 19.4355 114.285 19.5855 114.385 19.7255C114.495 19.8655 114.62 19.9855 114.76 20.0855C114.9 20.1755 115.055 20.2405 115.225 20.2805C115.395 20.3205 115.565 20.3405 115.735 20.3405C115.935 20.3405 116.13 20.3255 116.32 20.2955C116.52 20.2555 116.705 20.1855 116.875 20.0855C117.045 19.9755 117.18 19.8355 117.28 19.6655C117.39 19.4855 117.445 19.2955 117.445 19.0955H118.615C118.615 19.3255 118.575 19.5505 118.495 19.7705C118.425 19.9905 118.32 20.1955 118.18 20.3855C118.05 20.5655 117.89 20.7255 117.7 20.8655C117.51 20.9955 117.305 21.1005 117.085 21.1805C116.875 21.2605 116.655 21.3155 116.425 21.3455C116.195 21.3755 115.965 21.3905 115.735 21.3905ZM117.475 16.8455V16.4705C117.475 16.3005 117.465 16.1305 117.445 15.9605C117.425 15.7905 117.385 15.6255 117.325 15.4655C117.265 15.3055 117.18 15.1555 117.07 15.0155C116.97 14.8755 116.85 14.7605 116.71 14.6705C116.57 14.5705 116.415 14.5005 116.245 14.4605C116.075 14.4205 115.905 14.4005 115.735 14.4005C115.565 14.4005 115.395 14.4205 115.225 14.4605C115.055 14.5005 114.9 14.5705 114.76 14.6705C114.62 14.7605 114.495 14.8755 114.385 15.0155C114.285 15.1555 114.205 15.3055 114.145 15.4655C114.085 15.6255 114.045 15.7905 114.025 15.9605C114.005 16.1305 113.995 16.3005 113.995 16.4705V16.8455H117.475Z" fill="white"/>
<path d="M106.195 24.4955V13.4705H107.365V14.9105C107.445 14.6805 107.55 14.4655 107.68 14.2655C107.82 14.0655 107.985 13.8955 108.175 13.7555C108.365 13.6155 108.575 13.5155 108.805 13.4555C109.035 13.3855 109.27 13.3505 109.51 13.3505C109.76 13.3505 110.005 13.3855 110.245 13.4555C110.485 13.5255 110.7 13.6405 110.89 13.8005C111.09 13.9505 111.255 14.1305 111.385 14.3405C111.515 14.5505 111.62 14.7755 111.7 15.0155C111.78 15.2455 111.83 15.4855 111.85 15.7355C111.88 15.9755 111.895 16.2205 111.895 16.4705V18.2705C111.895 18.5205 111.88 18.7705 111.85 19.0205C111.83 19.2605 111.78 19.5005 111.7 19.7405C111.62 19.9705 111.515 20.1905 111.385 20.4005C111.255 20.6105 111.09 20.7955 110.89 20.9555C110.7 21.1055 110.485 21.2155 110.245 21.2855C110.005 21.3555 109.76 21.3905 109.51 21.3905C109.27 21.3905 109.035 21.3555 108.805 21.2855C108.575 21.2255 108.365 21.1255 108.175 20.9855C107.985 20.8455 107.82 20.6755 107.68 20.4755C107.55 20.2755 107.445 20.0605 107.365 19.8305V24.4955H106.195ZM109.045 20.3405C109.215 20.3405 109.38 20.3205 109.54 20.2805C109.71 20.2405 109.86 20.1705 109.99 20.0705C110.13 19.9705 110.25 19.8505 110.35 19.7105C110.45 19.5705 110.525 19.4205 110.575 19.2605C110.635 19.1005 110.675 18.9405 110.695 18.7805C110.715 18.6105 110.725 18.4405 110.725 18.2705V16.4705C110.725 16.3005 110.715 16.1355 110.695 15.9755C110.675 15.8055 110.635 15.6405 110.575 15.4805C110.525 15.3205 110.45 15.1705 110.35 15.0305C110.25 14.8905 110.13 14.7705 109.99 14.6705C109.86 14.5705 109.71 14.5005 109.54 14.4605C109.38 14.4205 109.215 14.4005 109.045 14.4005C108.875 14.4005 108.705 14.4205 108.535 14.4605C108.375 14.5005 108.225 14.5705 108.085 14.6705C107.955 14.7705 107.84 14.8905 107.74 15.0305C107.64 15.1705 107.56 15.3205 107.5 15.4805C107.45 15.6405 107.415 15.8055 107.395 15.9755C107.375 16.1355 107.365 16.3005 107.365 16.4705V18.2705C107.365 18.4405 107.375 18.6105 107.395 18.7805C107.415 18.9405 107.45 19.1005 107.5 19.2605C107.56 19.4205 107.64 19.5705 107.74 19.7105C107.84 19.8505 107.955 19.9705 108.085 20.0705C108.225 20.1705 108.375 20.2405 108.535 20.2805C108.705 20.3205 108.875 20.3405 109.045 20.3405Z" fill="white"/>
<path d="M101.65 21.2705V14.5205H99.355V13.4705H105.115V14.5205H102.82V21.2705H101.65Z" fill="white"/>
<path d="M95.485 21.3905C95.215 21.3905 94.945 21.3605 94.675 21.3005C94.415 21.2505 94.165 21.1605 93.925 21.0305C93.695 20.9005 93.485 20.7355 93.295 20.5355C93.115 20.3255 92.97 20.1005 92.86 19.8605C92.75 19.6105 92.675 19.3505 92.635 19.0805C92.595 18.8105 92.575 18.5405 92.575 18.2705V16.4705C92.575 16.2005 92.595 15.9305 92.635 15.6605C92.675 15.3905 92.75 15.1355 92.86 14.8955C92.97 14.6455 93.115 14.4205 93.295 14.2205C93.485 14.0105 93.695 13.8405 93.925 13.7105C94.165 13.5805 94.415 13.4905 94.675 13.4405C94.945 13.3805 95.215 13.3505 95.485 13.3505C95.755 13.3505 96.02 13.3805 96.28 13.4405C96.55 13.4905 96.8 13.5805 97.03 13.7105C97.27 13.8405 97.48 14.0105 97.66 14.2205C97.85 14.4205 98 14.6455 98.11 14.8955C98.22 15.1355 98.295 15.3905 98.335 15.6605C98.375 15.9305 98.395 16.2005 98.395 16.4705V18.2705C98.395 18.5405 98.375 18.8105 98.335 19.0805C98.295 19.3505 98.22 19.6105 98.11 19.8605C98 20.1005 97.85 20.3255 97.66 20.5355C97.48 20.7355 97.27 20.9005 97.03 21.0305C96.8 21.1605 96.55 21.2505 96.28 21.3005C96.02 21.3605 95.755 21.3905 95.485 21.3905ZM95.485 20.3405C95.655 20.3405 95.825 20.3205 95.995 20.2805C96.165 20.2405 96.32 20.1755 96.46 20.0855C96.6 19.9855 96.72 19.8655 96.82 19.7255C96.93 19.5855 97.015 19.4355 97.075 19.2755C97.135 19.1155 97.175 18.9505 97.195 18.7805C97.215 18.6105 97.225 18.4405 97.225 18.2705V16.4705C97.225 16.3005 97.215 16.1305 97.195 15.9605C97.175 15.7905 97.135 15.6255 97.075 15.4655C97.015 15.3055 96.93 15.1555 96.82 15.0155C96.72 14.8755 96.6 14.7605 96.46 14.6705C96.32 14.5705 96.165 14.5005 95.995 14.4605C95.825 14.4205 95.655 14.4005 95.485 14.4005C95.315 14.4005 95.145 14.4205 94.975 14.4605C94.805 14.5005 94.65 14.5705 94.51 14.6705C94.37 14.7605 94.245 14.8755 94.135 15.0155C94.035 15.1555 93.955 15.3055 93.895 15.4655C93.835 15.6255 93.795 15.7905 93.775 15.9605C93.755 16.1305 93.745 16.3005 93.745 16.4705V18.2705C93.745 18.4405 93.755 18.6105 93.775 18.7805C93.795 18.9505 93.835 19.1155 93.895 19.2755C93.955 19.4355 94.035 19.5855 94.135 19.7255C94.245 19.8655 94.37 19.9855 94.51 20.0855C94.65 20.1755 94.805 20.2405 94.975 20.2805C95.145 20.3205 95.315 20.3405 95.485 20.3405Z" fill="white"/>
<path d="M85.75 21.2705V13.4705H87.43L88.735 19.1855L90.04 13.4705H91.72V21.2705H90.61V19.7105C90.61 18.8705 90.625 18.0355 90.655 17.2055C90.695 16.3655 90.72 15.5305 90.73 14.7005V14.5805L89.2 21.2705H88.27L86.74 14.5805C86.75 15.4405 86.77 16.3005 86.8 17.1605C86.84 18.0105 86.86 18.8605 86.86 19.7105V21.2705H85.75Z" fill="white"/>
<path d="M81.94 21.3905C81.67 21.3905 81.4 21.3605 81.13 21.3005C80.87 21.2505 80.625 21.1605 80.395 21.0305C80.165 20.8905 79.96 20.7205 79.78 20.5205C79.61 20.3105 79.47 20.0855 79.36 19.8455C79.25 19.5955 79.175 19.3405 79.135 19.0805C79.095 18.8105 79.075 18.5405 79.075 18.2705V16.4705C79.075 16.2005 79.095 15.9355 79.135 15.6755C79.175 15.4055 79.25 15.1505 79.36 14.9105C79.47 14.6605 79.61 14.4355 79.78 14.2355C79.96 14.0255 80.165 13.8555 80.395 13.7255C80.625 13.5855 80.87 13.4905 81.13 13.4405C81.4 13.3805 81.67 13.3505 81.94 13.3505C82.19 13.3505 82.44 13.3705 82.69 13.4105C82.94 13.4505 83.175 13.5255 83.395 13.6355C83.615 13.7455 83.815 13.8905 83.995 14.0705C84.185 14.2405 84.34 14.4355 84.46 14.6555C84.58 14.8755 84.665 15.1105 84.715 15.3605C84.775 15.6005 84.805 15.8455 84.805 16.0955V16.1705H83.635V16.1255C83.635 15.8955 83.6 15.6705 83.53 15.4505C83.46 15.2305 83.345 15.0405 83.185 14.8805C83.025 14.7105 82.835 14.5905 82.615 14.5205C82.395 14.4405 82.17 14.4005 81.94 14.4005C81.77 14.4005 81.6 14.4205 81.43 14.4605C81.27 14.5005 81.12 14.5705 80.98 14.6705C80.84 14.7705 80.72 14.8905 80.62 15.0305C80.53 15.1705 80.455 15.3205 80.395 15.4805C80.335 15.6305 80.295 15.7905 80.275 15.9605C80.255 16.1305 80.245 16.3005 80.245 16.4705V18.2705C80.245 18.4405 80.255 18.6105 80.275 18.7805C80.295 18.9505 80.335 19.1155 80.395 19.2755C80.455 19.4255 80.53 19.5705 80.62 19.7105C80.72 19.8505 80.84 19.9705 80.98 20.0705C81.12 20.1705 81.27 20.2405 81.43 20.2805C81.6 20.3205 81.77 20.3405 81.94 20.3405C82.17 20.3405 82.395 20.3055 82.615 20.2355C82.835 20.1555 83.025 20.0355 83.185 19.8755C83.345 19.7055 83.46 19.5105 83.53 19.2905C83.6 19.0705 83.635 18.8455 83.635 18.6155V18.5705H84.805V18.6455C84.805 18.8955 84.775 19.1455 84.715 19.3955C84.665 19.6355 84.58 19.8655 84.46 20.0855C84.34 20.3055 84.185 20.5055 83.995 20.6855C83.815 20.8555 83.615 20.9955 83.395 21.1055C83.175 21.2155 82.94 21.2905 82.69 21.3305C82.44 21.3705 82.19 21.3905 81.94 21.3905Z" fill="white"/>
<path d="M75.235 21.3905C74.965 21.3905 74.695 21.3605 74.425 21.3005C74.165 21.2505 73.915 21.1605 73.675 21.0305C73.445 20.9005 73.235 20.7355 73.045 20.5355C72.865 20.3255 72.72 20.1005 72.61 19.8605C72.5 19.6105 72.425 19.3505 72.385 19.0805C72.345 18.8105 72.325 18.5405 72.325 18.2705V16.4705C72.325 16.2005 72.345 15.9305 72.385 15.6605C72.425 15.3905 72.5 15.1355 72.61 14.8955C72.72 14.6455 72.865 14.4205 73.045 14.2205C73.235 14.0105 73.445 13.8405 73.675 13.7105C73.915 13.5805 74.165 13.4905 74.425 13.4405C74.695 13.3805 74.965 13.3505 75.235 13.3505C75.505 13.3505 75.77 13.3805 76.03 13.4405C76.3 13.4905 76.55 13.5805 76.78 13.7105C77.02 13.8405 77.23 14.0105 77.41 14.2205C77.6 14.4205 77.75 14.6455 77.86 14.8955C77.97 15.1355 78.045 15.3905 78.085 15.6605C78.125 15.9305 78.145 16.2005 78.145 16.4705V18.2705C78.145 18.5405 78.125 18.8105 78.085 19.0805C78.045 19.3505 77.97 19.6105 77.86 19.8605C77.75 20.1005 77.6 20.3255 77.41 20.5355C77.23 20.7355 77.02 20.9005 76.78 21.0305C76.55 21.1605 76.3 21.2505 76.03 21.3005C75.77 21.3605 75.505 21.3905 75.235 21.3905ZM75.235 20.3405C75.405 20.3405 75.575 20.3205 75.745 20.2805C75.915 20.2405 76.07 20.1755 76.21 20.0855C76.35 19.9855 76.47 19.8655 76.57 19.7255C76.68 19.5855 76.765 19.4355 76.825 19.2755C76.885 19.1155 76.925 18.9505 76.945 18.7805C76.965 18.6105 76.975 18.4405 76.975 18.2705V16.4705C76.975 16.3005 76.965 16.1305 76.945 15.9605C76.925 15.7905 76.885 15.6255 76.825 15.4655C76.765 15.3055 76.68 15.1555 76.57 15.0155C76.47 14.8755 76.35 14.7605 76.21 14.6705C76.07 14.5705 75.915 14.5005 75.745 14.4605C75.575 14.4205 75.405 14.4005 75.235 14.4005C75.065 14.4005 74.895 14.4205 74.725 14.4605C74.555 14.5005 74.4 14.5705 74.26 14.6705C74.12 14.7605 73.995 14.8755 73.885 15.0155C73.785 15.1555 73.705 15.3055 73.645 15.4655C73.585 15.6255 73.545 15.7905 73.525 15.9605C73.505 16.1305 73.495 16.3005 73.495 16.4705V18.2705C73.495 18.4405 73.505 18.6105 73.525 18.7805C73.545 18.9505 73.585 19.1155 73.645 19.2755C73.705 19.4355 73.785 19.5855 73.885 19.7255C73.995 19.8655 74.12 19.9855 74.26 20.0855C74.4 20.1755 74.555 20.2405 74.725 20.2805C74.895 20.3205 75.065 20.3405 75.235 20.3405Z" fill="white"/>
<path d="M65.695 21.2705V13.4705H71.275V21.2705H70.105V14.5205H66.865V21.2705H65.695Z" fill="white"/>
<path d="M52.195 21.2705V13.4705H53.365V16.5905C53.365 17.1405 53.345 17.6905 53.305 18.2405C53.275 18.7905 53.245 19.3455 53.215 19.9055L56.335 13.4705H57.775V21.2705H56.605V18.1505C56.605 17.6005 56.62 17.0505 56.65 16.5005C56.69 15.9505 56.725 15.3955 56.755 14.8355L53.635 21.2705H52.195ZM54.985 12.2705C54.685 12.2705 54.39 12.2355 54.1 12.1655C53.81 12.0855 53.55 11.9505 53.32 11.7605C53.09 11.5705 52.92 11.3355 52.81 11.0555C52.71 10.7655 52.66 10.4705 52.66 10.1705H53.71C53.71 10.3305 53.74 10.4905 53.8 10.6505C53.86 10.8105 53.95 10.9455 54.07 11.0555C54.19 11.1555 54.33 11.2255 54.49 11.2655C54.66 11.3055 54.825 11.3255 54.985 11.3255C55.145 11.3255 55.305 11.3055 55.465 11.2655C55.635 11.2255 55.78 11.1555 55.9 11.0555C56.02 10.9455 56.11 10.8105 56.17 10.6505C56.23 10.4905 56.26 10.3305 56.26 10.1705H57.31C57.31 10.4705 57.255 10.7655 57.145 11.0555C57.045 11.3355 56.88 11.5705 56.65 11.7605C56.42 11.9505 56.16 12.0855 55.87 12.1655C55.58 12.2355 55.285 12.2705 54.985 12.2705Z" fill="white"/>
<path d="M48.235 21.3905C47.965 21.3905 47.695 21.3605 47.425 21.3005C47.165 21.2505 46.915 21.1605 46.675 21.0305C46.445 20.9005 46.235 20.7355 46.045 20.5355C45.865 20.3255 45.72 20.1005 45.61 19.8605C45.5 19.6105 45.425 19.3505 45.385 19.0805C45.345 18.8105 45.325 18.5405 45.325 18.2705V16.4705C45.325 16.2005 45.345 15.9305 45.385 15.6605C45.425 15.3905 45.5 15.1355 45.61 14.8955C45.72 14.6455 45.865 14.4205 46.045 14.2205C46.235 14.0105 46.445 13.8405 46.675 13.7105C46.915 13.5805 47.165 13.4905 47.425 13.4405C47.695 13.3805 47.965 13.3505 48.235 13.3505C48.505 13.3505 48.77 13.3805 49.03 13.4405C49.3 13.4905 49.55 13.5805 49.78 13.7105C50.02 13.8405 50.23 14.0105 50.41 14.2205C50.6 14.4205 50.75 14.6455 50.86 14.8955C50.97 15.1355 51.045 15.3905 51.085 15.6605C51.125 15.9305 51.145 16.2005 51.145 16.4705V17.8955H46.495V18.2705C46.495 18.4405 46.505 18.6105 46.525 18.7805C46.545 18.9505 46.585 19.1155 46.645 19.2755C46.705 19.4355 46.785 19.5855 46.885 19.7255C46.995 19.8655 47.12 19.9855 47.26 20.0855C47.4 20.1755 47.555 20.2405 47.725 20.2805C47.895 20.3205 48.065 20.3405 48.235 20.3405C48.435 20.3405 48.63 20.3255 48.82 20.2955C49.02 20.2555 49.205 20.1855 49.375 20.0855C49.545 19.9755 49.68 19.8355 49.78 19.6655C49.89 19.4855 49.945 19.2955 49.945 19.0955H51.115C51.115 19.3255 51.075 19.5505 50.995 19.7705C50.925 19.9905 50.82 20.1955 50.68 20.3855C50.55 20.5655 50.39 20.7255 50.2 20.8655C50.01 20.9955 49.805 21.1005 49.585 21.1805C49.375 21.2605 49.155 21.3155 48.925 21.3455C48.695 21.3755 48.465 21.3905 48.235 21.3905ZM49.975 16.8455V16.4705C49.975 16.3005 49.965 16.1305 49.945 15.9605C49.925 15.7905 49.885 15.6255 49.825 15.4655C49.765 15.3055 49.68 15.1555 49.57 15.0155C49.47 14.8755 49.35 14.7605 49.21 14.6705C49.07 14.5705 48.915 14.5005 48.745 14.4605C48.575 14.4205 48.405 14.4005 48.235 14.4005C48.065 14.4005 47.895 14.4205 47.725 14.4605C47.555 14.5005 47.4 14.5705 47.26 14.6705C47.12 14.7605 46.995 14.8755 46.885 15.0155C46.785 15.1555 46.705 15.3055 46.645 15.4655C46.585 15.6255 46.545 15.7905 46.525 15.9605C46.505 16.1305 46.495 16.3005 46.495 16.4705V16.8455H49.975Z" fill="white"/>
<path d="M38.695 21.2705V13.4705H44.275V21.2705H43.105V14.5205H39.865V21.2705H38.695Z" fill="white"/>
<path d="M34.69 21.3905C34.42 21.3905 34.15 21.3605 33.88 21.3005C33.62 21.2505 33.375 21.1605 33.145 21.0305C32.915 20.8905 32.71 20.7205 32.53 20.5205C32.36 20.3105 32.22 20.0855 32.11 19.8455C32 19.5955 31.925 19.3405 31.885 19.0805C31.845 18.8105 31.825 18.5405 31.825 18.2705V16.4705C31.825 16.2005 31.845 15.9355 31.885 15.6755C31.925 15.4055 32 15.1505 32.11 14.9105C32.22 14.6605 32.36 14.4355 32.53 14.2355C32.71 14.0255 32.915 13.8555 33.145 13.7255C33.375 13.5855 33.62 13.4905 33.88 13.4405C34.15 13.3805 34.42 13.3505 34.69 13.3505C34.94 13.3505 35.19 13.3705 35.44 13.4105C35.69 13.4505 35.925 13.5255 36.145 13.6355C36.365 13.7455 36.565 13.8905 36.745 14.0705C36.935 14.2405 37.09 14.4355 37.21 14.6555C37.33 14.8755 37.415 15.1105 37.465 15.3605C37.525 15.6005 37.555 15.8455 37.555 16.0955V16.1705H36.385V16.1255C36.385 15.8955 36.35 15.6705 36.28 15.4505C36.21 15.2305 36.095 15.0405 35.935 14.8805C35.775 14.7105 35.585 14.5905 35.365 14.5205C35.145 14.4405 34.92 14.4005 34.69 14.4005C34.52 14.4005 34.35 14.4205 34.18 14.4605C34.02 14.5005 33.87 14.5705 33.73 14.6705C33.59 14.7705 33.47 14.8905 33.37 15.0305C33.28 15.1705 33.205 15.3205 33.145 15.4805C33.085 15.6305 33.045 15.7905 33.025 15.9605C33.005 16.1305 32.995 16.3005 32.995 16.4705V18.2705C32.995 18.4405 33.005 18.6105 33.025 18.7805C33.045 18.9505 33.085 19.1155 33.145 19.2755C33.205 19.4255 33.28 19.5705 33.37 19.7105C33.47 19.8505 33.59 19.9705 33.73 20.0705C33.87 20.1705 34.02 20.2405 34.18 20.2805C34.35 20.3205 34.52 20.3405 34.69 20.3405C34.92 20.3405 35.145 20.3055 35.365 20.2355C35.585 20.1555 35.775 20.0355 35.935 19.8755C36.095 19.7055 36.21 19.5105 36.28 19.2905C36.35 19.0705 36.385 18.8455 36.385 18.6155V18.5705H37.555V18.6455C37.555 18.8955 37.525 19.1455 37.465 19.3955C37.415 19.6355 37.33 19.8655 37.21 20.0855C37.09 20.3055 36.935 20.5055 36.745 20.6855C36.565 20.8555 36.365 20.9955 36.145 21.1055C35.925 21.2155 35.69 21.2905 35.44 21.3305C35.19 21.3705 34.94 21.3905 34.69 21.3905Z" fill="white"/>
<path d="M26.5 24.4955C26.59 24.1955 26.68 23.8905 26.77 23.5805C26.86 23.2805 26.95 22.9805 27.04 22.6805L27.385 21.4955L25 13.4705H26.215L28 19.9205L29.755 13.4705H30.97L27.715 24.4955H26.5Z" fill="white"/>
</svg>
